<?xml version="1.0" encoding="UTF-8"?>
<svg width="1278px" height="65px" viewBox="0 0 1278 65" version="1.1" xmlns="http://www.w3.org/2000/svg" xmlns:xlink="http://www.w3.org/1999/xlink">
    <title>Page 1</title>
    <g id="Page-1" stroke="none" stroke-width="1" fill="none" fill-rule="evenodd">
        <path d="M1277.5,41.9003241 C1180.09058,0.869169118 1051.25724,-9.38861962 891,11.1269579 C650.614133,41.9003241 539.563331,64.5 286.161459,41.9003241 C117.226878,26.8338734 21.8689138,16.5760847 0.0875664535,11.1269579 C0.0875664535,46.708986 0.0875664535,64.5 0.0875664535,64.5 C0.0875664535,64.5 1277.5,64.5 1277.5,64.5 C1277.5,64.5 1277.5,56.9667747 1277.5,41.9003241 Z" id="Line" fill="#FFFFFF"></path>
        <path d="M757.247824,28.6006064 C804.15747,21.7206682 854.299045,14.9989696 907.67255,8.43551062 C956.561911,2.42347694 1023.84182,-0.450088694 1066.39781,0.869169118 C1182.72325,4.47531884 1235.06151,26.8947027 1235.06151,26.8947027 C1235.06151,26.8947027 1192.10972,26.6503462 1133.2064,32.6845846 C1083.82948,37.7429089 1023.39839,49.2528877 966.161504,49.2528877 C882.483759,49.2528877 812.845866,42.3687939 757.247824,28.6006064 Z" id="Line-2" fill="#EEEEEE"></path>
    </g>
</svg>